<svg width="760" height="540">
      <!-- <g id="container"></g> -->
    <g class="x-axis" transform="translate(50, 520)" fill="none" font-size="10" font-family="sans-serif" text-anchor="middle"><path class="domain" stroke="currentColor" d="M0,-500V0H700V-500"></path><g class="tick" opacity="1" transform="translate(0,0)"><line stroke="currentColor" y2="-500"></line><text fill="currentColor" y="3" dy="0.71em">0</text></g><g class="tick" opacity="1" transform="translate(70,0)"><line stroke="currentColor" y2="-500"></line><text fill="currentColor" y="3" dy="0.71em">10</text></g><g class="tick" opacity="1" transform="translate(140,0)"><line stroke="currentColor" y2="-500"></line><text fill="currentColor" y="3" dy="0.71em">20</text></g><g class="tick" opacity="1" transform="translate(210,0)"><line stroke="currentColor" y2="-500"></line><text fill="currentColor" y="3" dy="0.71em">30</text></g><g class="tick" opacity="1" transform="translate(280,0)"><line stroke="currentColor" y2="-500"></line><text fill="currentColor" y="3" dy="0.71em">40</text></g><g class="tick" opacity="1" transform="translate(350,0)"><line stroke="currentColor" y2="-500"></line><text fill="currentColor" y="3" dy="0.71em">50</text></g><g class="tick" opacity="1" transform="translate(420,0)"><line stroke="currentColor" y2="-500"></line><text fill="currentColor" y="3" dy="0.71em">60</text></g><g class="tick" opacity="1" transform="translate(489.99999999999994,0)"><line stroke="currentColor" y2="-500"></line><text fill="currentColor" y="3" dy="0.71em">70</text></g><g class="tick" opacity="1" transform="translate(560,0)"><line stroke="currentColor" y2="-500"></line><text fill="currentColor" y="3" dy="0.71em">80</text></g><g class="tick" opacity="1" transform="translate(630,0)"><line stroke="currentColor" y2="-500"></line><text fill="currentColor" y="3" dy="0.71em">90</text></g><g class="tick" opacity="1" transform="translate(700,0)"><line stroke="currentColor" y2="-500"></line><text fill="currentColor" y="3" dy="0.71em">100</text></g></g><g id="container" style="transform: translate(50px, 20px);"><circle cx="630" cy="200" r="7.0710678118654755" style="fill: rgb(78, 121, 167);"></circle><circle cx="658" cy="200" r="7.0710678118654755" style="fill: rgb(78, 121, 167);"></circle><circle cx="105" cy="200" r="7.0710678118654755" style="fill: rgb(242, 142, 44);"></circle><circle cx="658" cy="200" r="7.0710678118654755" style="fill: rgb(78, 121, 167);"></circle><circle cx="56" cy="200" r="7.0710678118654755" style="fill: rgb(242, 142, 44);"></circle><circle cx="679" cy="200" r="7.0710678118654755" style="fill: rgb(78, 121, 167);"></circle><circle cx="441" cy="200" r="7.0710678118654755" style="fill: rgb(225, 87, 89);"></circle><circle cx="679" cy="200" r="7.0710678118654755" style="fill: rgb(78, 121, 167);"></circle><circle cx="637" cy="200" r="7.0710678118654755" style="fill: rgb(78, 121, 167);"></circle><circle cx="679" cy="200" r="7.0710678118654755" style="fill: rgb(78, 121, 167);"></circle><circle cx="161" cy="200" r="7.0710678118654755" style="fill: rgb(242, 142, 44);"></circle><circle cx="630" cy="200" r="7.0710678118654755" style="fill: rgb(78, 121, 167);"></circle><circle cx="700" cy="200" r="7.0710678118654755" style="fill: rgb(78, 121, 167);"></circle><circle cx="672" cy="200" r="7.0710678118654755" style="fill: rgb(78, 121, 167);"></circle><circle cx="651" cy="200" r="7.0710678118654755" style="fill: rgb(78, 121, 167);"></circle><circle cx="679" cy="200" r="7.0710678118654755" style="fill: rgb(78, 121, 167);"></circle><circle cx="581" cy="200" r="7.0710678118654755" style="fill: rgb(78, 121, 167);"></circle><circle cx="651" cy="200" r="7.0710678118654755" style="fill: rgb(78, 121, 167);"></circle><circle cx="616" cy="200" r="7.0710678118654755" style="fill: rgb(78, 121, 167);"></circle><circle cx="665" cy="200" r="7.0710678118654755" style="fill: rgb(78, 121, 167);"></circle><circle cx="644" cy="200" r="7.0710678118654755" style="fill: rgb(78, 121, 167);"></circle><circle cx="672" cy="200" r="7.0710678118654755" style="fill: rgb(78, 121, 167);"></circle><circle cx="672" cy="200" r="7.0710678118654755" style="fill: rgb(78, 121, 167);"></circle><circle cx="455" cy="200" r="7.0710678118654755" style="fill: rgb(225, 87, 89);"></circle><circle cx="693" cy="200" r="7.0710678118654755" style="fill: rgb(78, 121, 167);"></circle><circle cx="91" cy="200" r="7.0710678118654755" style="fill: rgb(242, 142, 44);"></circle><circle cx="623" cy="200" r="7.0710678118654755" style="fill: rgb(78, 121, 167);"></circle><circle cx="623" cy="200" r="7.0710678118654755" style="fill: rgb(78, 121, 167);"></circle><circle cx="49.00000000000001" cy="200" r="7.0710678118654755" style="fill: rgb(242, 142, 44);"></circle><circle cx="560" cy="200" r="7.0710678118654755" style="fill: rgb(78, 121, 167);"></circle><circle cx="476.00000000000006" cy="200" r="7.0710678118654755" style="fill: rgb(225, 87, 89);"></circle><circle cx="77" cy="200" r="7.0710678118654755" style="fill: rgb(242, 142, 44);"></circle><circle cx="581" cy="200" r="7.0710678118654755" style="fill: rgb(78, 121, 167);"></circle><circle cx="469" cy="200" r="7.0710678118654755" style="fill: rgb(225, 87, 89);"></circle><circle cx="231" cy="200" r="7.0710678118654755" style="fill: rgb(242, 142, 44);"></circle><circle cx="21" cy="200" r="7.0710678118654755" style="fill: rgb(242, 142, 44);"></circle><circle cx="581" cy="200" r="7.0710678118654755" style="fill: rgb(78, 121, 167);"></circle><circle cx="658" cy="200" r="7.0710678118654755" style="fill: rgb(78, 121, 167);"></circle><circle cx="672" cy="200" r="7.0710678118654755" style="fill: rgb(78, 121, 167);"></circle><circle cx="581" cy="200" r="7.0710678118654755" style="fill: rgb(78, 121, 167);"></circle><circle cx="406" cy="200" r="7.0710678118654755" style="fill: rgb(225, 87, 89);"></circle><circle cx="343" cy="200" r="7.0710678118654755" style="fill: rgb(225, 87, 89);"></circle><circle cx="357" cy="200" r="7.0710678118654755" style="fill: rgb(225, 87, 89);"></circle><circle cx="595" cy="200" r="7.0710678118654755" style="fill: rgb(78, 121, 167);"></circle><circle cx="406" cy="200" r="7.0710678118654755" style="fill: rgb(225, 87, 89);"></circle><circle cx="420" cy="200" r="7.0710678118654755" style="fill: rgb(225, 87, 89);"></circle><circle cx="588" cy="200" r="7.0710678118654755" style="fill: rgb(78, 121, 167);"></circle><circle cx="546" cy="200" r="7.0710678118654755" style="fill: rgb(78, 121, 167);"></circle><circle cx="630" cy="200" r="7.0710678118654755" style="fill: rgb(78, 121, 167);"></circle><circle cx="504" cy="200" r="7.0710678118654755" style="fill: rgb(78, 121, 167);"></circle><circle cx="553" cy="200" r="7.0710678118654755" style="fill: rgb(78, 121, 167);"></circle><circle cx="224" cy="200" r="7.0710678118654755" style="fill: rgb(242, 142, 44);"></circle><circle cx="560" cy="200" r="7.0710678118654755" style="fill: rgb(78, 121, 167);"></circle><circle cx="595" cy="200" r="7.0710678118654755" style="fill: rgb(78, 121, 167);"></circle><circle cx="581" cy="200" r="7.0710678118654755" style="fill: rgb(78, 121, 167);"></circle><circle cx="378" cy="200" r="7.0710678118654755" style="fill: rgb(225, 87, 89);"></circle><circle cx="371" cy="200" r="7.0710678118654755" style="fill: rgb(225, 87, 89);"></circle><circle cx="398.99999999999994" cy="200" r="7.0710678118654755" style="fill: rgb(225, 87, 89);"></circle><circle cx="427" cy="200" r="7.0710678118654755" style="fill: rgb(225, 87, 89);"></circle><circle cx="273" cy="200" r="7.0710678118654755" style="fill: rgb(225, 87, 89);"></circle><circle cx="469" cy="200" r="7.0710678118654755" style="fill: rgb(225, 87, 89);"></circle><circle cx="539" cy="200" r="7.0710678118654755" style="fill: rgb(78, 121, 167);"></circle><circle cx="462" cy="200" r="7.0710678118654755" style="fill: rgb(225, 87, 89);"></circle><circle cx="280" cy="200" r="7.0710678118654755" style="fill: rgb(225, 87, 89);"></circle><circle cx="525" cy="200" r="7.0710678118654755" style="fill: rgb(78, 121, 167);"></circle><circle cx="301" cy="200" r="7.0710678118654755" style="fill: rgb(225, 87, 89);"></circle><circle cx="182" cy="200" r="7.0710678118654755" style="fill: rgb(242, 142, 44);"></circle><circle cx="161" cy="200" r="7.0710678118654755" style="fill: rgb(242, 142, 44);"></circle><circle cx="7" cy="200" r="7.0710678118654755" style="fill: rgb(242, 142, 44);"></circle><circle cx="294" cy="200" r="7.0710678118654755" style="fill: rgb(225, 87, 89);"></circle><circle cx="294" cy="200" r="7.0710678118654755" style="fill: rgb(225, 87, 89);"></circle><circle cx="644" cy="200" r="7.0710678118654755" style="fill: rgb(78, 121, 167);"></circle><circle cx="189" cy="200" r="7.0710678118654755" style="fill: rgb(242, 142, 44);"></circle><circle cx="244.99999999999997" cy="200" r="7.0710678118654755" style="fill: rgb(225, 87, 89);"></circle><circle cx="105" cy="200" r="7.0710678118654755" style="fill: rgb(242, 142, 44);"></circle><circle cx="308" cy="200" r="7.0710678118654755" style="fill: rgb(225, 87, 89);"></circle><circle cx="84" cy="200" r="7.0710678118654755" style="fill: rgb(242, 142, 44);"></circle><circle cx="7" cy="200" r="7.0710678118654755" style="fill: rgb(242, 142, 44);"></circle></g></svg>